<?xml version="1.0" encoding="utf-8"?>
<!-- Generator: Adobe Illustrator 21.0.0, SVG Export Plug-In . SVG Version: 6.00 Build 0)  -->
<svg version="1.1" id="Layer_1" xmlns="http://www.w3.org/2000/svg" xmlns:xlink="http://www.w3.org/1999/xlink" x="0px" y="0px"
	 viewBox="0 0 1920 1080" style="enable-background:new 0 0 1920 1080;" xml:space="preserve">
<style type="text/css">
	.st0{fill:#FFFFFF;}
	.st1{fill:none;}
	.st2{fill:#FFFFFF;stroke:#FFFFFF;stroke-miterlimit:10;}
	.st3{fill:#FFFFFF;stroke:#FFFFFF;stroke-width:0.8925;stroke-miterlimit:10;}
</style>
<g>
	<path class="st0" d="M700.8,205.7L463.5,353.9v133.6l343.7-215.5L700.8,205.7z M831.1,583.2v0.3l-103.2,64.4l-1.5,0.9l-25.5,15.9
		l-130.2-81.3V450.6l-107.2,67.2v132.6l130.5,81.5l106.9,66.7L852.5,704l3.3-2l82.5-51.5V516L831.1,583.2z"/>
	<polygon class="st0" points="924.4,345.3 817.6,412.5 724.3,354.2 831.3,287.2 	"/>
</g>
<polyline class="st1" points="841.7,667.1 844.8,665.2 925,617.3 "/>
<polyline class="st1" points="925,493.1 820.9,555.3 720.5,615.2 719.1,616.1 590.3,693 "/>
<line class="st1" x1="567.6" y1="541" x2="463.5" y2="603.5"/>
<polyline class="st1" points="1397,747.2 1397,674.3 1397,607.9 1397,401.7 1397,335.4 1397,261.3 "/>
<g>
	<g>
		<path class="st2" d="M1420.8,241.9l-156.1,101.6c3.2-0.2,6.5-0.2,9.8-0.2h149V241.9H1420.8z M1274.4,658.3
			c-96.4,0-174.8-70.7-174.8-157.5c0-20.4,4.3-39.9,12.2-57.8l-123.6,80.4c6,62.5,36.6,118.6,83,160.4
			c52,46.9,123.8,75.8,203.1,75.8h149V658.3H1274.4z M1204.1,356.6l176.2-114.7h-105.9c-157.6,0-285.5,114.3-287.2,255.9
			l157.7-102.7C1161.3,378.8,1181.5,365.6,1204.1,356.6z"/>
	</g>
	
		<rect x="1265.2" y="601.5" transform="matrix(3.256113e-11 -1 1 3.256113e-11 710.8912 2024.9055)" class="st3" width="205.5" height="111"/>
</g>
<polyline class="st1" points="988.2,523.5 1111.8,443.1 1264.7,343.5 1420.8,241.9 "/>
<polyline class="st1" points="987.2,497.8 1144.9,395.2 1204.1,356.6 1380.3,241.9 "/>
<g>
	<g>
		<g>
			<path class="st0" d="M1507.3,765.9c0.2-16.4,0.4-32.8,0.6-49.1c0.9-98.9,1.4-197.9,1.7-298c0.2-95.9,0.5-192.9,0.7-292.2
				c-49.7-0.1-100-0.3-151.1-0.4c-55.5-0.2-111.9-0.5-169.2-0.7c-234.2-1.8-501.8-0.9-736-0.9c175.9,0.4,354.6,0.8,533.7,1.2
				c89.5,0.2,179.2,0.4,268.5,0.6c44.7,0.1,89.3,0.3,133.9,0.4c22.3,0.1,44.5,0.2,66.7,0.2c11.1,0,22.2,0.1,33.3,0.1l13.2,0.1
				l6.3,0.1c-0.6,97.8-1.2,195-1.7,290.9c-0.7,100.5-1.6,199.8-2.8,297.5c-2.1-53.9-3.8-118.3-3.8-193.3
				c0.5-130.7,1-260.1,1.5-388.3l-1.1,0l-0.3,0l-0.1,0l-1.7,0l-7.9,0c-10.6,0-21.1-0.1-31.6-0.1c-21-0.1-42-0.1-63-0.2
				c0-0.9,0-2.7,0-3.6c-173.7,0.9-343.4,0.7-511.8,0.1c-84.2-0.3-168.1-0.6-252.1-0.9c-78.9-0.2-157.8-0.5-237.1-0.7
				c0,32.4,0,65-0.1,97.6c0.1,37.7,0.1,75.5,0.2,113.5c0.2,75.9,0.6,152.3,1.3,229.6c0.5-17.8,1.2-7.3,1.8-3.6c0,1.2,0,2.4,0,3.6
				c0-1.1,0-2.3,0-3.6c0.5,3.3,0.9,1.3,0.9-29.9c0,31.2-0.4,33.3-0.9,29.9c-0.1-76.7-0.2-152.6-0.3-227.9c0-69.2,0-137.9-0.1-206.2
				c159.5,0.2,317.5,0.4,476.6,0.6c165.1,0.5,331.3,1,501.3,1.5c-167.6-0.2-333.9-0.4-499.6-0.7c-159.2,0-317.9,0-476.9,0
				c0.2,241.5,0.4,483.5,0.5,728.9c166-0.1,333.6-0.1,503.6-0.2c33.4,0,100.3,0,133.8,0c133.8,2.7,267.7,3.6,401.4,3.6
				c-33.4,4.5,100.4,13.5-167.3,11.7c0,0.9,0,2.7,0,3.6c267.7,4.5,368.1,17.1,100.4,20.7c-139.9,1.7-301.5,1.8-471.3,1.6
				c-84.9-0.1-171.9-0.2-259.2-0.3c-43.7,0-87.4,0-131.1,0c-50.6,0.1-101.1,0.1-151.2,0.2c0-20.1-0.1-40.2-0.1-60.1
				c-0.1-13.1-0.1-26.1-0.2-39.1c-0.3-115-0.6-230-0.9-345.1c0-57.5,0-115-0.1-172.5c0.1-64.7,0.3-129.5,0.4-194.2l49.9,0.1
				l28.2,0.1l56.4,0.3c166.2,1.2,339.3,1.7,513,2.2c86.8,0.3,173.8,0.6,260.2,0.8c92,0.5,183.3,1,273.1,1.4
				c-0.1,14.6-0.1,29.2-0.2,43.8c-0.1,9-0.1,18-0.2,27c-0.2,17.9-0.3,35.8-0.5,53.6c-0.9,133.9,1.8,368.1-0.9,435
				c-1.3,48.1-3.2,50-5.3,42.6c0.2-199.6,0.5-398.7,0.7-595.5c-27.4,0-54.2-0.1-80.9-0.1c-266-1-532-2.1-797.9-3.9
				c260,2.5,527,3.4,797.9,3.9c26.9,0.1,53.8,0.2,80.7,0.3c-0.8,196.1-1.5,392.3-2.3,588.4c-1.8-7.9-3.8-15.5-5.5-2.3
				c0,0,0,66.9,0,100.3c-4.5,133.9-10.8,100.3-15.3,33.5C1509.4,806.4,1508.4,787.2,1507.3,765.9z"/>
		</g>
	</g>
</g>
</svg>
